<svg xmlns="http://www.w3.org/2000/svg" viewBox="0 0 1194.101 662.325"><defs><linearGradient id="a" x1=".939" y1=".048" x2=".016" y2=".69" gradientUnits="objectBoundingBox"><stop offset="0" stop-color="#5ecadf"/><stop offset="1" stop-color="#328cc1"/></linearGradient></defs><g data-name="Group 2"><path d="M197.4 559.668c36.047 22.186 134.43 64.562 208.005 82.8 78.309 19.406 165.749-3.579 258.528 0 90.168 3.478 185.676 34.123 262.583 11.754 46.425-13.5 86.435-33.358 121.853-58.754 181.316-130.005 181.316-377.478 66.616-502.409S851.91 42.944 616.3 42.944c-210.892 0-459.635-124.33-569.212 50.111S32.182 457.983 197.4 559.668z" fill="url(#a)"/><path data-name="“" d="M175.472 182.512a26.443 26.443 0 0 1-11.777-2.617 28.191 28.191 0 0 1-9.509-7.852 35.624 35.624 0 0 1-6.281-12.518 60.525 60.525 0 0 1-2.094-16.619 77 77 0 0 1 1.09-13.042 70.12 70.12 0 0 1 3.272-12.257 76 76 0 0 1 11.254-20.677 61.848 61.848 0 0 1 14.831-13.958c5.267-3.415 10.051-5.147 14.22-5.147 3.821 0 6.785 1.086 8.811 3.228a12.1 12.1 0 0 1 3.053 8.636 12.958 12.958 0 0 1-1.7 6.761 12.352 12.352 0 0 1-5.1 4.58c-6.368 3.589-11.24 7.611-14.482 11.952s-5.238 10.065-5.933 17.012h2.269a23.5 23.5 0 0 1 9.312 1.9 28.486 28.486 0 0 1 8.4 5.692 25.367 25.367 0 0 1 5.954 8.528 26.759 26.759 0 0 1 1.978 10.401 25.506 25.506 0 0 1-1.985 10.12 25.231 25.231 0 0 1-5.954 8.375 26.851 26.851 0 0 1-8.877 5.627 30.019 30.019 0 0 1-10.752 1.875zm-76.771-.348a26.663 26.663 0 0 1-11.668-2.552 28.548 28.548 0 0 1-9.531-7.655 34.16 34.16 0 0 1-6.347-12.367 60.06 60.06 0 0 1-2.115-16.684 75.027 75.027 0 0 1 1.854-16.728 71.946 71.946 0 0 1 5.561-15.638 82.737 82.737 0 0 1 8.244-13.522 61.612 61.612 0 0 1 9.9-10.382 48.251 48.251 0 0 1 10.141-6.611 21.593 21.593 0 0 1 8.967-2.2c3.7 0 6.64 1.115 8.724 3.315a11.98 11.98 0 0 1 3.14 8.55 12.783 12.783 0 0 1-1.7 6.674 12.936 12.936 0 0 1-5.1 4.667 47.717 47.717 0 0 0-14.661 11.864c-3.589 4.515-5.643 10.268-6.107 17.1h2.443a24.033 24.033 0 0 1 9.443 1.9 28.3 28.3 0 0 1 8.44 5.692 25.367 25.367 0 0 1 5.954 8.528 26.759 26.759 0 0 1 1.985 10.4 25.575 25.575 0 0 1-1.985 10.186 23.972 23.972 0 0 1-5.953 8.224 27 27 0 0 1-8.877 5.431 30.987 30.987 0 0 1-10.752 1.808z" fill="#fff" opacity=".3"/></g></svg>