<svg xmlns="http://www.w3.org/2000/svg" xmlns:xlink="http://www.w3.org/1999/xlink" viewBox="0 0 1194.101 662.325">
  <defs>
    <style>
      .cls-1 {
        fill: url(#linear-gradient);
      }

      .cls-2 {
        fill: #fff;
        opacity: 0.3;
      }
    </style>
    <linearGradient id="linear-gradient" x1="0.939" y1="0.048" x2="0.016" y2="0.69" gradientUnits="objectBoundingBox">
      <stop offset="0" stop-color="#5ecadf"/>
      <stop offset="1" stop-color="#328cc1"/>
    </linearGradient>
  </defs>
  <g id="Group_2" data-name="Group 2" transform="translate(-115.96 -612.675)">
    <path id="Oval-2" class="cls-1" d="M197.4,559.668c36.047,22.186,134.43,64.562,208.005,82.8,78.309,19.406,165.749-3.579,258.528,0,90.168,3.478,185.676,34.123,262.583,11.754,46.425-13.5,86.435-33.358,121.853-58.754,181.316-130.005,181.316-377.478,66.616-502.409S851.91,42.944,616.3,42.944c-210.892,0-459.635-124.33-569.212,50.111S32.182,457.983,197.4,559.668Z" transform="translate(115.96 612.675)"/>
    <path id="_" data-name="“" class="cls-2" d="M106.432,104.687a26.443,26.443,0,0,1-11.777-2.617,28.191,28.191,0,0,1-9.509-7.852A35.624,35.624,0,0,1,78.865,81.7a60.525,60.525,0,0,1-2.094-16.619,77,77,0,0,1,1.09-13.042,70.12,70.12,0,0,1,3.272-12.257A76,76,0,0,1,92.387,19.105,61.848,61.848,0,0,1,107.218,5.147C112.485,1.732,117.269,0,121.438,0c3.821,0,6.785,1.086,8.811,3.228a12.1,12.1,0,0,1,3.053,8.636,12.958,12.958,0,0,1-1.7,6.761,12.352,12.352,0,0,1-5.1,4.58c-6.368,3.589-11.24,7.611-14.482,11.952s-5.238,10.065-5.933,17.012h2.269a23.5,23.5,0,0,1,9.312,1.9,28.486,28.486,0,0,1,8.4,5.692,25.367,25.367,0,0,1,5.954,8.528A26.759,26.759,0,0,1,134,78.69a25.506,25.506,0,0,1-1.985,10.12,25.231,25.231,0,0,1-5.954,8.375,26.851,26.851,0,0,1-8.877,5.627A30.019,30.019,0,0,1,106.432,104.687Zm-76.771-.348a26.663,26.663,0,0,1-11.668-2.552,28.548,28.548,0,0,1-9.531-7.655A34.16,34.16,0,0,1,2.115,81.765,60.06,60.06,0,0,1,0,65.081,75.027,75.027,0,0,1,1.854,48.353,71.946,71.946,0,0,1,7.415,32.715a82.737,82.737,0,0,1,8.244-13.522,61.612,61.612,0,0,1,9.9-10.382A48.251,48.251,0,0,1,35.7,2.2,21.593,21.593,0,0,1,44.667,0c3.7,0,6.64,1.115,8.724,3.315a11.98,11.98,0,0,1,3.14,8.55,12.783,12.783,0,0,1-1.7,6.674,12.936,12.936,0,0,1-5.1,4.667A47.717,47.717,0,0,0,35.07,35.07c-3.589,4.515-5.643,10.268-6.107,17.1h2.443a24.033,24.033,0,0,1,9.443,1.9,28.3,28.3,0,0,1,8.44,5.692,25.367,25.367,0,0,1,5.954,8.528,26.759,26.759,0,0,1,1.985,10.4,25.575,25.575,0,0,1-1.985,10.186A23.972,23.972,0,0,1,49.29,97.1a27,27,0,0,1-8.877,5.431A30.987,30.987,0,0,1,29.661,104.339Z" transform="translate(185 690.5)"/>
  </g>
</svg>
