<svg xmlns="http://www.w3.org/2000/svg" viewBox="0 0 95 74.219">
  <defs>
    <style>
      .cls-1 {
        fill: #5ecadf;
        opacity: 0.1;
      }
    </style>
  </defs>
  <path id="_" data-name="“" class="cls-1" d="M75.456,74.218a18.747,18.747,0,0,1-8.35-1.855A19.987,19.987,0,0,1,60.365,66.8a25.259,25.259,0,0,1-4.453-8.876,42.91,42.91,0,0,1-1.484-11.782A51.8,51.8,0,0,1,57.52,28.2,53.835,53.835,0,0,1,65.5,13.545a43.848,43.848,0,0,1,10.514-9.9C79.747,1.228,83.139,0,86.094,0a8.227,8.227,0,0,1,6.247,2.289,8.583,8.583,0,0,1,2.164,6.123A9.186,9.186,0,0,1,93.3,13.2a8.759,8.759,0,0,1-3.618,3.247,32.554,32.554,0,0,0-10.267,8.473,23.838,23.838,0,0,0-4.206,12.06h1.608a16.662,16.662,0,0,1,6.6,1.345,20.192,20.192,0,0,1,5.953,4.036,17.99,17.99,0,0,1,4.221,6.046A18.968,18.968,0,0,1,95,55.787a18.08,18.08,0,0,1-1.407,7.175A17.9,17.9,0,0,1,89.372,68.9a19.037,19.037,0,0,1-6.293,3.989A21.28,21.28,0,0,1,75.456,74.218Zm-54.428-.247a18.9,18.9,0,0,1-8.272-1.809A20.234,20.234,0,0,1,6,66.735a24.215,24.215,0,0,1-4.5-8.767A42.577,42.577,0,0,1,0,46.139,53.191,53.191,0,0,1,1.314,34.28,51.022,51.022,0,0,1,5.257,23.193,58.7,58.7,0,0,1,11.1,13.607a43.666,43.666,0,0,1,7.02-7.36,34.212,34.212,0,0,1,7.19-4.685A15.307,15.307,0,0,1,31.666,0a8.144,8.144,0,0,1,6.185,2.35,8.49,8.49,0,0,1,2.227,6.062,9.064,9.064,0,0,1-1.206,4.732,9.169,9.169,0,0,1-3.618,3.309,33.817,33.817,0,0,0-10.391,8.411,21.377,21.377,0,0,0-4.33,12.122h1.733a17.036,17.036,0,0,1,6.695,1.345,20.057,20.057,0,0,1,5.984,4.036,17.99,17.99,0,0,1,4.221,6.046,18.968,18.968,0,0,1,1.407,7.375,18.13,18.13,0,0,1-1.407,7.221,17,17,0,0,1-4.221,5.83,19.143,19.143,0,0,1-6.293,3.85A21.973,21.973,0,0,1,21.028,73.971Z"/>
</svg>
