<svg xmlns="http://www.w3.org/2000/svg" viewBox="0 0 62.499 62.499">
  <defs>
    <style>
      .cls-1 {
        fill: #5ecadf;
      }
    </style>
  </defs>
  <g id="arrow" transform="translate(31.256 -0.485) rotate(45)">
    <path id="Shape" class="cls-1" d="M44.192,34.417V1.306c0-.005,0-.008,0-.013a1.327,1.327,0,0,0-.1-.488A1.29,1.29,0,0,0,43.815.39.054.054,0,0,1,43.81.382,1.32,1.32,0,0,0,42.888,0L9.777,0a1.3,1.3,0,1,0,0,2.608H39.739L.382,41.967a1.3,1.3,0,1,0,1.845,1.844L41.584,4.454V34.418a1.3,1.3,0,0,0,2.607,0" transform="translate(0.339 0.347)"/>
  </g>
</svg>
